<svg xmlns="http://www.w3.org/2000/svg" viewBox="0 0 64 64" role="img" aria-labelledby="title">
  <title>Kranz aus 8 Kegeln</title>
  <defs>
    <g id="pin">
      <path d="M0 -8.5 C3.8 -8.5 5.9 -5.2 4.7 -2.4 C4.1 -0.9 2.9 0.1 1.8 1.3 V5.2 C1.8 6.9 0.8 8 -0.8 8 C-2.4 8 -3.4 6.9 -3.4 5.2 V1.3 C-4.5 0.1 -5.7 -0.9 -6.3 -2.4 C-7.5 -5.2 -5.4 -8.5 0 -8.5 Z" fill="#ffffff" stroke="#1f2a24" stroke-width="1.2"/>
      <rect x="-2.8" y="-2" width="5.6" height="1.6" rx="0.8" fill="#2f8f6d"/>
      <ellipse cx="0" cy="6.9" rx="3.3" ry="1.2" fill="#e8d09f" stroke="#1f2a24" stroke-width="0.8"/>
    </g>
  </defs>

  <circle cx="32" cy="32" r="24" fill="#fffdf7" stroke="#d7d9cf" stroke-width="2"/>
  <circle cx="32" cy="32" r="11" fill="#f6f1df" stroke="#e7e4d8" stroke-width="1.4"/>

  <g transform="translate(32 7)"><use href="#pin"/></g>
  <g transform="translate(49.7 14.3) rotate(45)"><use href="#pin"/></g>
  <g transform="translate(57 32) rotate(90)"><use href="#pin"/></g>
  <g transform="translate(49.7 49.7) rotate(135)"><use href="#pin"/></g>
  <g transform="translate(32 57) rotate(180)"><use href="#pin"/></g>
  <g transform="translate(14.3 49.7) rotate(225)"><use href="#pin"/></g>
  <g transform="translate(7 32) rotate(270)"><use href="#pin"/></g>
  <g transform="translate(14.3 14.3) rotate(315)"><use href="#pin"/></g>
</svg>
